<svg width="81" height="27" viewBox="0 0 81 27" fill="none" xmlns="http://www.w3.org/2000/svg">
<g clip-path="url(#clip0_1_2)">
<path d="M2.63428 10H1.03467V0.75781H2.63428V10ZM5.89062 3.13184L5.93506 3.92529C6.44287 3.31169 7.10938 3.00488 7.93457 3.00488C9.36491 3.00488 10.0928 3.82373 10.1182 5.46143V10H8.57568V5.55029C8.57568 5.11442 8.48047 4.79281 8.29004 4.58545C8.10384 4.37386 7.79704 4.26807 7.36963 4.26807C6.74756 4.26807 6.28418 4.54948 5.97949 5.1123V10H4.43701V3.13184H5.89062ZM20.9473 6.63574C20.9473 7.69792 20.7061 8.5464 20.2236 9.1812C19.7412 9.8117 19.0938 10.127 18.2812 10.127C17.528 10.127 16.925 9.8794 16.4722 9.3843V12.6406H14.9297V3.13184H16.3516L16.415 3.83008C16.8678 3.27995 17.4836 3.00488 18.2622 3.00488C19.1001 3.00488 19.756 3.31803 20.23 3.94434C20.7082 4.56641 20.9473 5.4318 20.9473 6.54053V6.63574ZM19.4111 6.50244C19.4111 5.81689 19.2736 5.27311 18.9985 4.87109C18.7277 4.46908 18.3384 4.26807 17.8306 4.26807C17.2 4.26807 16.7472 4.52832 16.4722 5.04883V8.0957C16.7515 8.6289 17.2085 8.8955 17.8433 8.8955C18.3341 8.8955 18.7171 8.6987 18.9922 8.3052C19.2715 7.90739 19.4111 7.30648 19.4111 6.50244ZM26.3618 10C26.2941 9.8688 26.2349 9.6551 26.1841 9.3589C25.6932 9.8709 25.0923 10.127 24.3813 10.127C23.6916 10.127 23.1287 9.9302 22.6929 9.5366C22.257 9.1431 22.0391 8.6564 22.0391 8.0767C22.0391 7.34456 22.3099 6.78385 22.8516 6.39453C23.3975 6.00098 24.1761 5.8042 25.1875 5.8042H26.1333V5.35352C26.1333 4.99805 26.0339 4.71452 25.835 4.50293C25.6361 4.28711 25.3335 4.1792 24.9272 4.1792C24.576 4.1792 24.2882 4.26807 24.064 4.4458C23.8397 4.6193 23.7275 4.84147 23.7275 5.1123H22.1851C22.1851 4.73568 22.3099 4.38444 22.5596 4.05859C22.8092 3.72852 23.1478 3.47038 23.5752 3.28418C24.0068 3.09798 24.4871 3.00488 25.0161 3.00488C25.8201 3.00488 26.4613 3.20801 26.9395 3.61426C27.4176 4.01628 27.6631 4.58333 27.6758 5.31543V8.4131C27.6758 9.0309 27.7625 9.5239 27.936 9.8921V10H26.3618ZM24.667 8.8892C24.9717 8.8892 25.2573 8.8151 25.5239 8.667C25.7948 8.5189 25.9979 8.32 26.1333 8.0703V6.77539H25.3018C24.7305 6.77539 24.3009 6.87484 24.0132 7.07373C23.7254 7.27262 23.5815 7.55404 23.5815 7.91797C23.5815 8.2142 23.6789 8.4512 23.8735 8.6289C24.0724 8.8024 24.3369 8.8892 24.667 8.8892ZM32.8872 4.54102C32.6841 4.50716 32.4746 4.49023 32.2588 4.49023C31.5521 4.49023 31.076 4.76107 30.8306 5.30273V10H29.2881V3.13184H30.7607L30.7988 3.8999C31.1712 3.30322 31.6875 3.00488 32.3477 3.00488C32.5677 3.00488 32.7497 3.03451 32.8936 3.09375L32.8872 4.54102ZM36.1118 1.4624V3.13184H37.3242V4.27441H36.1118V8.1084C36.1118 8.3708 36.1626 8.5612 36.2642 8.6797C36.37 8.7939 36.5562 8.8511 36.8228 8.8511C37.0005 8.8511 37.1803 8.8299 37.3623 8.7876V9.981C37.0111 10.0783 36.6725 10.127 36.3467 10.127C35.1618 10.127 34.5693 9.4731 34.5693 8.1655V4.27441H33.4395V3.13184H34.5693V1.4624H36.1118ZM39.9395 3.13184L39.9839 3.92529C40.4917 3.31169 41.1582 3.00488 41.9834 3.00488C43.4137 3.00488 44.1416 3.82373 44.167 5.46143V10H42.6245V5.55029C42.6245 5.11442 42.5293 4.79281 42.3389 4.58545C42.1527 4.37386 41.8459 4.26807 41.4185 4.26807C40.7964 4.26807 40.333 4.54948 40.0283 5.1123V10H38.4858V3.13184H39.9395ZM48.769 10.127C47.7915 10.127 46.998 9.8201 46.3887 9.2065C45.7835 8.5887 45.481 7.76774 45.481 6.74365V6.55322C45.481 5.86768 45.6121 5.25618 45.8745 4.71875C46.1411 4.17708 46.5135 3.75602 46.9917 3.45557C47.4699 3.15511 48.0031 3.00488 48.5913 3.00488C49.5265 3.00488 50.248 3.30322 50.7559 3.8999C51.2679 4.49658 51.5239 5.34082 51.5239 6.43262V7.05469H47.0361C47.0827 7.62174 47.271 8.0703 47.6011 8.4004C47.9354 8.7305 48.3543 8.8955 48.8579 8.8955C49.5646 8.8955 50.1401 8.6099 50.5845 8.0386L51.416 8.832C51.141 9.2425 50.7728 9.562 50.3115 9.7905C49.8545 10.0148 49.3403 10.127 48.769 10.127ZM48.585 4.24268C48.1618 4.24268 47.819 4.39079 47.5566 4.68701C47.2985 4.98324 47.1335 5.39583 47.0615 5.9248H50.0005V5.81055C49.9666 5.29427 49.8291 4.90495 49.5879 4.64258C49.3467 4.37598 49.0124 4.24268 48.585 4.24268ZM56.3228 4.54102C56.1196 4.50716 55.9102 4.49023 55.6943 4.49023C54.9876 4.49023 54.5116 4.76107 54.2661 5.30273V10H52.7236V3.13184H54.1963L54.2344 3.8999C54.6068 3.30322 55.123 3.00488 55.7832 3.00488C56.0033 3.00488 56.1852 3.03451 56.3291 3.09375L56.3228 4.54102ZM61.147 8.1338C61.147 7.85872 61.0327 7.64925 60.8042 7.50537C60.5799 7.36149 60.2054 7.23454 59.6807 7.12451C59.1559 7.01449 58.7179 6.87484 58.3667 6.70557C57.5965 6.33317 57.2114 5.79362 57.2114 5.08691C57.2114 4.49447 57.4611 3.99935 57.9604 3.60156C58.4598 3.20378 59.0946 3.00488 59.8647 3.00488C60.6857 3.00488 61.348 3.20801 61.8516 3.61426C62.3594 4.02051 62.6133 4.54736 62.6133 5.19482H61.0708C61.0708 4.8986 60.9608 4.65316 60.7407 4.4585C60.5207 4.2596 60.2287 4.16016 59.8647 4.16016C59.5262 4.16016 59.249 4.23844 59.0332 4.39502C58.8216 4.5516 58.7158 4.76107 58.7158 5.02344C58.7158 5.26042 58.8153 5.4445 59.0142 5.57568C59.2131 5.70687 59.6151 5.84017 60.2202 5.97559C60.8254 6.10677 61.2993 6.26546 61.6421 6.45166C61.9891 6.63363 62.2451 6.85368 62.4102 7.11182C62.5794 7.36995 62.6641 7.68311 62.6641 8.0513C62.6641 8.6691 62.408 9.1706 61.896 9.5557C61.384 9.9365 60.7132 10.127 59.8838 10.127C59.321 10.127 58.8195 10.0254 58.3794 9.8223C57.9393 9.6191 57.5965 9.3398 57.3511 8.9844C57.1056 8.6289 56.9829 8.2459 56.9829 7.83545H58.481C58.5021 8.1994 58.6396 8.4808 58.8936 8.6797C59.1475 8.8743 59.4839 8.9717 59.9028 8.9717C60.3091 8.9717 60.618 8.8955 60.8296 8.7432C61.0412 8.5866 61.147 8.3835 61.147 8.1338ZM65.5332 3.88086C66.0368 3.29688 66.6737 3.00488 67.4438 3.00488C68.908 3.00488 69.6507 3.84066 69.6719 5.51221V10H68.1294V5.56934C68.1294 5.09538 68.0257 4.76107 67.8184 4.56641C67.6152 4.36751 67.3148 4.26807 66.917 4.26807C66.2992 4.26807 65.8379 4.54313 65.5332 5.09326V10H63.9907V0.25H65.5332V3.88086ZM72.8774 10H71.335V3.13184H72.8774V10ZM71.2397 1.34814C71.2397 1.11117 71.3138 0.91439 71.4619 0.75781C71.6143 0.60124 71.8301 0.52295 72.1094 0.52295C72.3887 0.52295 72.6045 0.60124 72.7568 0.75781C72.9092 0.91439 72.9854 1.11117 72.9854 1.34814C72.9854 1.58089 72.9092 1.77555 72.7568 1.93213C72.6045 2.08447 72.3887 2.16064 72.1094 2.16064C71.8301 2.16064 71.6143 2.08447 71.4619 1.93213C71.3138 1.77555 71.2397 1.58089 71.2397 1.34814ZM80.5771 6.63574C80.5771 7.69792 80.3359 8.5464 79.8535 9.1812C79.3711 9.8117 78.7236 10.127 77.9111 10.127C77.1579 10.127 76.5549 9.8794 76.1021 9.3843V12.6406H74.5596V3.13184H75.9814L76.0449 3.83008C76.4977 3.27995 77.1134 3.00488 77.8921 3.00488C78.73 3.00488 79.3859 3.31803 79.8599 3.94434C80.3381 4.56641 80.5771 5.4318 80.5771 6.54053V6.63574ZM79.041 6.50244C79.041 5.81689 78.9035 5.27311 78.6284 4.87109C78.3576 4.46908 77.9683 4.26807 77.4604 4.26807C76.8299 4.26807 76.3771 4.52832 76.1021 5.04883V8.0957C76.3813 8.6289 76.8384 8.8955 77.4731 8.8955C77.964 8.8955 78.347 8.6987 78.6221 8.3052C78.9014 7.90739 79.041 7.30648 79.041 6.50244ZM6.82373 22.8735L7.91553 18.1318H9.41992L7.54736 25H6.27783L4.80518 20.2837L3.35791 25H2.08838L0.209473 18.1318H1.71387L2.82471 22.8228L4.23389 18.1318H5.39551L6.82373 22.8735ZM12.0923 25H10.5498V18.1318H12.0923V25ZM10.4546 16.3481C10.4546 16.1112 10.5286 15.9144 10.6768 15.7578C10.8291 15.6012 11.0449 15.5229 11.3242 15.5229C11.6035 15.5229 11.8193 15.6012 11.9717 15.7578C12.124 15.9144 12.2002 16.1112 12.2002 16.3481C12.2002 16.5809 12.124 16.7756 11.9717 16.9321C11.8193 17.0845 11.6035 17.1606 11.3242 17.1606C11.0449 17.1606 10.8291 17.0845 10.6768 16.9321C10.5286 16.7756 10.4546 16.5809 10.4546 16.3481ZM15.7104 16.4624V18.1318H16.9229V19.2744H15.7104V23.1084C15.7104 23.3708 15.7612 23.5612 15.8628 23.6797C15.9686 23.7939 16.1548 23.8511 16.4214 23.8511C16.5991 23.8511 16.779 23.8299 16.9609 23.7876V24.981C16.6097 25.0783 16.2712 25.127 15.9453 25.127C14.7604 25.127 14.168 24.4731 14.168 23.1655V19.2744H13.0381V18.1318H14.168V16.4624H15.7104ZM19.627 18.8809C20.1305 18.2969 20.7674 18.0049 21.5376 18.0049C23.0018 18.0049 23.7445 18.8407 23.7656 20.5122V25H22.2231V20.5693C22.2231 20.0954 22.1195 19.7611 21.9121 19.5664C21.709 19.3675 21.4085 19.2681 21.0107 19.2681C20.3929 19.2681 19.9316 19.5431 19.627 20.0933V25H18.0845V15.25H19.627V18.8809Z" fill="white"/>
<g clip-path="url(#clip1_1_2)">
<path fill-rule="evenodd" clip-rule="evenodd" d="M50.8815 21.6072V15.1418C50.8815 15.0547 50.8092 14.9885 50.7294 15.0019L49.6035 15.1925C49.5395 15.2033 49.4922 15.2628 49.4922 15.3326L49.496 21.8899C49.496 22.2 49.496 24.1147 51.6372 24.1817C51.7115 24.1841 51.7731 24.1198 51.7731 24.0398V23.0611C51.7731 22.9901 51.7242 22.9289 51.6589 22.921C50.8813 22.8247 50.8813 21.7793 50.8813 21.6077L50.8815 21.6072Z" fill="white"/>
<path d="M69.4485 17.5135H68.3156C68.2429 17.5135 68.1839 17.5769 68.1839 17.6551V24.0415C68.1839 24.1197 68.2429 24.1831 68.3156 24.1831H69.4485C69.5212 24.1831 69.5802 24.1197 69.5802 24.0415V17.6551C69.5802 17.5769 69.5212 17.5135 69.4485 17.5135Z" fill="white"/>
<path fill-rule="evenodd" clip-rule="evenodd" d="M68.3156 16.7131H69.4483C69.521 16.7131 69.5799 16.6498 69.5799 16.5715V15.1416C69.5799 15.0547 69.5076 14.9882 69.4278 15.0017L68.295 15.1925C68.231 15.2033 68.1837 15.2626 68.1837 15.3324V16.5713C68.1837 16.6495 68.2426 16.7129 68.3153 16.7129L68.3156 16.7131Z" fill="white"/>
<path fill-rule="evenodd" clip-rule="evenodd" d="M66.3577 21.6072V15.1418C66.3577 15.0547 66.2855 14.9885 66.2056 15.0019L65.0798 15.1925C65.0157 15.2033 64.9684 15.2628 64.9684 15.3326L64.9722 21.8899C64.9722 22.2 64.9722 24.1147 67.1134 24.1817C67.1877 24.1841 67.2493 24.1198 67.2493 24.0398V23.0611C67.2493 22.9901 67.2004 22.9289 67.1351 22.921C66.3575 22.8247 66.3575 21.7793 66.3575 21.6077L66.3577 21.6072Z" fill="white"/>
<path fill-rule="evenodd" clip-rule="evenodd" d="M63.4109 18.4253C63.1623 18.1313 62.8569 17.9057 62.501 17.7458C62.1458 17.5891 61.7589 17.5094 61.3393 17.5094C60.9203 17.5094 60.5327 17.5855 60.1809 17.7458C59.833 17.9057 59.5274 18.131 59.2715 18.4253C59.0156 18.7188 58.8168 19.0702 58.6744 19.482C58.5321 19.8941 58.4683 20.3789 58.4683 20.8826C58.4683 21.3864 58.5394 21.7675 58.6813 22.1837C58.8237 22.5994 59.0191 22.9543 59.2715 23.2483C59.5234 23.5418 59.8254 23.7672 60.1773 23.9314C60.5291 24.0953 61.0724 24.1793 61.3464 24.1829C61.6197 24.1829 62.167 24.0912 62.5222 23.9314C62.8774 23.771 63.1795 23.5418 63.4321 23.2483C63.684 22.9543 63.8794 22.5994 64.0177 22.1837C64.1565 21.7675 64.2239 21.3864 64.2239 20.8826C64.2239 20.3789 64.1494 19.8941 64.0001 19.482C63.8578 19.0699 63.6623 18.7188 63.4104 18.4253H63.4109ZM62.4196 22.3553C62.1637 22.7333 61.8047 22.9241 61.3466 22.9241C60.8881 22.9241 60.5294 22.7369 60.2735 22.3553C60.0175 21.9773 59.8895 21.539 59.8895 20.8865C59.8895 20.2411 60.0142 19.7071 60.2701 19.3296C60.5256 18.9516 60.8846 18.7651 61.3426 18.7651C61.8011 18.7651 62.1599 18.9518 62.4156 19.3296C62.6715 19.7033 62.8029 20.2411 62.8029 20.8865C62.8029 21.539 62.6753 21.9737 62.4194 22.3553H62.4196Z" fill="white"/>
<path fill-rule="evenodd" clip-rule="evenodd" d="M46.9556 17.5135H45.855C44.7761 17.5135 43.8267 18.125 43.2725 19.0519C42.9485 19.5938 42.7596 20.243 42.7596 20.9414C42.7596 22.0188 43.2087 22.9795 43.9106 23.6078C43.976 23.6702 44.0456 23.7274 44.1183 23.7792C44.4052 23.983 44.7455 24.1025 45.1116 24.1025C45.1391 24.1025 45.1665 24.1018 45.1937 24.1003C45.2018 24.0998 45.2096 24.0991 45.2176 24.0986C45.237 24.0974 45.2566 24.096 45.2761 24.0938C45.2836 24.0931 45.2912 24.0919 45.2988 24.091C45.3191 24.0886 45.3394 24.0859 45.3597 24.0828C45.3644 24.0821 45.3691 24.0811 45.3738 24.0804C46.1076 23.9587 46.7473 23.3407 46.9556 22.573V23.9609C46.9556 24.0391 47.0145 24.1025 47.0873 24.1025H48.2122C48.2849 24.1025 48.3438 24.0391 48.3438 23.9609V17.6551C48.3438 17.5769 48.2849 17.5135 48.2122 17.5135H46.9556ZM46.9556 22.4796C46.6834 22.7234 46.3316 22.8151 45.9552 22.8425C45.9516 22.8427 45.9478 22.8432 45.9443 22.8434C45.9193 22.8451 45.8943 22.8458 45.8693 22.8458C44.9269 22.8458 44.1487 21.9845 44.1487 20.941C44.1487 20.695 44.1924 20.4607 44.2696 20.2454C44.5199 19.5466 45.1346 19.0517 45.855 19.0517H46.9556V22.4796Z" fill="white"/>
<path fill-rule="evenodd" clip-rule="evenodd" d="M74.6116 17.5135H73.511C72.432 17.5135 71.4826 18.125 70.9284 19.0519C70.6045 19.5938 70.4155 20.243 70.4155 20.9414C70.4155 22.0188 70.8646 22.9795 71.5665 23.6078C71.6319 23.6702 71.7015 23.7274 71.7742 23.7792C72.0612 23.983 72.4014 24.1025 72.7675 24.1025C72.795 24.1025 72.8224 24.1018 72.8496 24.1003C72.8577 24.0998 72.8655 24.0991 72.8735 24.0986C72.8929 24.0974 72.9126 24.096 72.932 24.0938C72.9396 24.0931 72.9471 24.0919 72.9547 24.091C72.975 24.0886 72.9953 24.0859 73.0156 24.0828C73.0203 24.0821 73.025 24.0811 73.0297 24.0804C73.7635 23.9587 74.4032 23.3407 74.6116 22.573V23.9609C74.6116 24.0391 74.6705 24.1025 74.7432 24.1025H75.8681C75.9409 24.1025 75.9998 24.0391 75.9998 23.9609V17.6551C75.9998 17.5769 75.9409 17.5135 75.8681 17.5135H74.6116ZM74.6116 22.4796C74.3394 22.7234 73.9875 22.8151 73.6111 22.8425C73.6076 22.8427 73.6038 22.8432 73.6002 22.8434C73.5752 22.8451 73.5502 22.8458 73.5252 22.8458C72.5828 22.8458 71.8046 21.9845 71.8046 20.941C71.8046 20.695 71.8483 20.4607 71.9255 20.2454C72.1758 19.5466 72.7905 19.0517 73.511 19.0517H74.6116V22.4796Z" fill="white"/>
<path fill-rule="evenodd" clip-rule="evenodd" d="M56.3181 17.5135H55.2175C54.1385 17.5135 53.1892 18.125 52.635 19.0519C52.3719 19.4921 52.1977 20.0033 52.1417 20.5541C52.1287 20.6813 52.122 20.8104 52.122 20.9414C52.122 21.0725 52.129 21.209 52.1428 21.3396C52.2383 22.2538 52.6591 23.0582 53.2731 23.6081C53.3384 23.6705 53.4081 23.7276 53.4808 23.7794C53.7677 23.9832 54.108 24.1027 54.4741 24.1027C54.8755 24.1027 55.2463 23.9604 55.5486 23.7194C55.9121 23.4415 56.193 23.0345 56.3179 22.5734V23.7797H56.3154V24.0456C56.3154 24.5698 56.188 24.9641 55.9286 25.2302C55.6695 25.4962 55.236 25.6294 54.6289 25.6294C54.3808 25.6294 53.9866 25.6152 53.5892 25.5715C53.5261 25.5646 53.4674 25.6075 53.4493 25.6728L53.1642 26.7074C53.1414 26.7905 53.1925 26.8759 53.272 26.8882C53.7521 26.9621 54.2206 27.0005 54.4913 27.0005C55.5825 27.0005 56.3913 26.7425 56.9207 26.2274C57.4 25.7616 57.6604 25.0541 57.7061 24.103V17.6551C57.7061 17.5769 57.6472 17.5135 57.5745 17.5135H56.3179H56.3181ZM56.3181 19.0519C56.3181 19.0519 56.3326 22.391 56.3181 22.4926C56.0486 22.727 55.7133 22.8187 55.3478 22.8454C55.3442 22.8456 55.3404 22.8461 55.3369 22.8463C55.3119 22.848 55.2869 22.8487 55.2619 22.8487C55.2325 22.8487 55.2032 22.848 55.174 22.8463C54.2724 22.7957 53.5114 21.9521 53.5114 20.9412C53.5114 20.6952 53.5551 20.461 53.6323 20.2457C53.8826 19.5468 54.4973 19.0519 55.2177 19.0519H56.3183H56.3181Z" fill="white"/>
<path d="M32.5743 15C29.5282 15 27.0449 17.6422 27.001 20.9078C26.9564 24.2244 29.4579 26.9726 32.5415 26.9918C33.4938 26.9978 34.411 26.7473 35.2256 26.2711C35.305 26.2248 35.3173 26.1072 35.2497 26.0429L34.728 25.5456C34.6221 25.4446 34.4712 25.416 34.3407 25.4755C33.7722 25.7357 33.1544 25.8686 32.5177 25.8602C30.0259 25.8274 28.0128 23.5973 28.0525 20.9172C28.0918 18.271 30.1052 16.1314 32.5743 16.1314H37.0966V24.7778L34.5308 22.3255C34.4478 22.2461 34.3206 22.2617 34.2537 22.357C33.8418 22.9435 33.1709 23.3083 32.4257 23.2531C31.3921 23.1763 30.5545 22.2811 30.4771 21.1697C30.3845 19.8439 31.3613 18.7332 32.5743 18.7332C33.6716 18.7332 34.5752 19.6416 34.6696 20.796C34.6781 20.8987 34.7211 20.9945 34.7927 21.0629L35.461 21.7001C35.5368 21.7723 35.6571 21.7282 35.6758 21.6209C35.724 21.3437 35.741 21.055 35.722 20.7588C35.6145 19.0706 34.3432 17.7125 32.7731 17.6086C30.9731 17.4893 29.4682 19.0039 29.4204 20.9026C29.3738 22.753 30.7832 24.348 32.5036 24.3888C33.2218 24.4058 33.8876 24.163 34.4255 23.742L37.778 26.9388C37.9217 27.0758 38.1486 26.9662 38.1486 26.7595V15.2275C38.1484 15.102 38.0538 15 37.9369 15H32.5743Z" fill="white"/>
</g>
</g>
<defs>
<clipPath id="clip0_1_2">
<rect width="81" height="27" fill="white"/>
</clipPath>
<clipPath id="clip1_1_2">
<rect width="49" height="12" fill="white" transform="translate(27 15)"/>
</clipPath>
</defs>
</svg>
