<?xml version="1.0" encoding="UTF-8"?><svg id="Layer_1" xmlns="http://www.w3.org/2000/svg" viewBox="0 0 34.72 33.25"><defs><style>.cls-1{fill:#010101;}.cls-2{fill:#fff;}.cls-3{fill:#b4b4b4;}.cls-4{fill:#c0d732;}.cls-5{fill:#484848;}.cls-6{fill:#73c046;}</style></defs><ellipse class="cls-2" cx="17.36" cy="16.62" rx="17.36" ry="16.62"/><path class="cls-1" d="m16.65,26.99c-.31-.12-.64-.19-.91-.36-1.15-.7-2.33-1.36-3.4-2.17-1.6-1.2-2.9-2.7-3.76-4.52-.41-.87-.69-1.78-.78-2.75-.06-.62-.1-1.22.05-1.83.02-.07-.08-.2-.16-.25-1.21-.79-1.99-1.93-2.54-3.23-.38-.9-.66-1.85-.7-2.84,0-.1.09-.3.14-.3.15,0,.34.04.42.14.42.52.77,1.1,1.22,1.58.76.79,1.64,1.45,2.65,1.89.26.11.52.33.84.13.52-.32,1-.69,1.18-1.31.06-.2.04-.44,0-.65-.05-.27-.23-.41-.53-.42-.35,0-.69.02-.99.21-.27.16-.39-.01-.53-.2.45-.83.99-1.55,1.76-2.11.87-.63,2.4-.58,3.22-.02,1.13.78,1.78,1.88,2.22,3.13.29.85.5,1.72.53,2.63.05,1.97.1,3.94.12,5.91.02,2.43,0,4.85,0,7.28-.02.02-.04.04-.05.06Zm-2.12-1.98v-6.5c-.22.37-.38.7-.6.98-.34.44-.7.87-1.1,1.26-.24.23-.56.2-.69-.08-.15-.34-.29-.73-.29-1.09,0-.69.04-1.39.2-2.06.29-1.22.64-2.43,1.01-3.64.3-1,.49-1.98.17-3.01-.28-.89-1.09-1.45-1.99-1.32.56.47.6,1.07.48,1.73-.15.81-.68,1.33-1.31,1.76-1.25.85-1.87,2.01-1.81,3.53.02.66.14,1.29.33,1.93.44,1.48,1.25,2.73,2.31,3.82.67.69,1.43,1.3,2.17,1.91.34.28.73.5,1.13.78Z"/><path class="cls-1" d="m26.79,16.66c-.17.75-.31,1.49-.49,2.22-.25.98-.73,1.87-1.34,2.68-.47.62-.97,1.24-1.52,1.78-1.14,1.11-2.42,2.05-3.83,2.8-.57.31-1.15.61-1.78.94,0-.2,0-.31,0-.41,0-3.97.01-7.93,0-11.9,0-1.6.3-3.13.99-4.56.49-1.04,1.14-1.97,2.25-2.44.93-.4,1.85-.32,2.71.21.74.45,1.26,1.11,1.7,1.85.07.12.02.31.03.47-.17,0-.34.04-.5.01-.25-.04-.49-.16-.74-.17-.6-.03-.94.41-.72.97.3.79.83,1.33,1.71,1.54.85.21,1.65.58,2.35,1.13,1.15.9,1.95,2.05,2.41,3.42.25.75.4,1.54.56,2.32.03.13-.04.38-.13.41-.18.07-.37.03-.51-.19-.78-1.29-1.85-2.3-3.15-3.06-.02,0-.04,0,0,0Zm-6.68,8.23c.76-.58,1.53-1.15,2.28-1.75,1.07-.85,1.87-1.91,2.53-3.1.52-.93.79-1.92.93-2.98.13-.98-.02-1.88-.48-2.74-.36-.67-.98-1.07-1.56-1.51-.68-.52-1.11-1.2-1.13-2.07-.01-.48.22-.87.59-1.21-.9-.1-1.45.29-1.79.89-.54.93-.47,1.93-.21,2.92.22.85.55,1.66.77,2.51.37,1.41.73,2.83.51,4.32-.05.31-.13.55-.43.66-.28.1-.49-.08-.68-.26-.57-.54-.96-1.21-1.34-1.89l-.12-.12s0,.08,0,.12c0,2.06,0,4.12,0,6.19,0,.03,0,.05.01.08.04-.02.08-.04.12-.06Z"/><path class="cls-4" d="m2.03,18.52c-.18.12-.32.22-.45.3-.14.09-.28.17-.41.26-.23-.1-.21-.23-.12-.44.54-1.3,1.06-2.61,1.58-3.92.02-.05.04-.1.06-.15.15-.34.27-.36.5-.06.88,1.13,1.76,2.25,2.63,3.38.06.08.12.16.14.25.04.2-.09.3-.29.22-.24-.1-.47-.2-.8-.33.06.52.09.96.18,1.39.35,1.59.93,3.1,1.83,4.46,1.29,1.96,3.01,3.45,5.11,4.49,1.05.52,2.14.92,3.29,1.09.99.15,2.01.2,3.01.15,3.07-.13,5.74-1.29,8.05-3.3,1.36-1.19,2.42-2.6,3.2-4.23.05-.1.12-.23.21-.28.18-.09.34-.01.35.2.01.12-.03.26-.08.38-1.43,3.35-3.78,5.83-7.05,7.44-1.34.66-2.75,1.08-4.22,1.29-1.28.18-2.57.17-3.86.02-1.38-.16-2.72-.51-3.98-1.08-2.91-1.29-5.23-3.28-6.88-6.02-.83-1.37-1.43-2.84-1.81-4.4-.09-.36-.13-.72-.2-1.14Z"/><path class="cls-6" d="m30.51,9.32c.16-.26.3-.53.48-.78.06-.09.2-.13.3-.2.05.1.14.19.14.29.03.67.04,1.33.08,2,.04.76.1,1.52.13,2.28.02.57-.01.58-.5.32-1.26-.65-2.52-1.29-3.77-1.95-.11-.06-.18-.18-.27-.27.13-.06.26-.16.39-.17.3-.03.6,0,.9,0,.02-.04.05-.08.07-.12-.43-.71-.83-1.44-1.3-2.11-1.31-1.85-3.02-3.23-5.08-4.18-1.14-.52-2.34-.9-3.59-1.03-1.01-.11-2.04-.15-3.05-.07-2.72.23-5.14,1.27-7.23,3.03-.49.41-.92.88-1.38,1.32-.14.14-.27.28-.48.12-.21-.17-.08-.32.04-.47,2.15-2.7,4.91-4.43,8.28-5.17,1.24-.27,2.51-.35,3.78-.28,1.15.07,2.28.25,3.39.59,3.71,1.14,6.55,3.39,8.56,6.69.02.04.04.08.07.11.01.02.03.02.07.05Z"/><path class="cls-1" d="m10.78,26.4c.4-.47.86-.64,1.34-.71.77-.12,1.47.06,2.09.55.06.05.1.12.14.17-.08.04-.15.12-.23.13-.26.02-.53,0-.79,0-.69,0-1.38,0-2.07,0-.14,0-.28-.08-.48-.13Z"/><path class="cls-1" d="m21.84,26.54c-.47,0-.95,0-1.42,0-.09,0-.18-.08-.26-.13.06-.08.12-.16.19-.23.06-.06.14-.09.21-.14.86-.6,2.24-.43,2.87.1.08.06.11.18.16.27-.1.04-.2.13-.3.13-.48.01-.97,0-1.45,0Z"/><path class="cls-5" d="m16.65,26.99s.04-.04.05-.06c-.02.02-.04.04-.05.06Z"/><path class="cls-3" d="m20.08,18.69s-.07,0-.11,0c0-.04,0-.08,0-.12l.12.12Z"/><path class="cls-3" d="m19.97,24.88s.09.01.13.02c-.04.02-.08.04-.12.06,0-.03,0-.05-.01-.08Z"/></svg>